<svg width="332" height="425" xmlns="http://www.w3.org/2000/svg" xmlns:xlink="http://www.w3.org/1999/xlink" xml:space="preserve" overflow="hidden"><g transform="translate(-1414 -717)"><path d="M1553.87 1055.83 1542.97 1087.34 1564.77 1087.34ZM1600.67 1037.9 1612.74 1037.9 1612.74 1110.7 1600.67 1110.7ZM1547.88 1037.9 1559.87 1037.9 1584.94 1110.7 1572.95 1110.7 1567.5 1095.49 1540.25 1095.49 1534.8 1110.7 1522.27 1110.7ZM1430.67 1016.71 1430.67 1121.57C1430.67 1123.74 1432.3 1125.37 1434.48 1125.37L1725.52 1125.37C1727.15 1125.37 1728.79 1123.74 1728.79 1121.57L1728.79 1016.71ZM1488.98 929.771C1480.81 929.771 1474.27 936.292 1474.27 943.898 1474.27 952.048 1480.81 958.569 1488.98 958.569 1497.16 958.569 1503.7 952.048 1503.7 943.898 1503.7 936.292 1497.16 929.771 1488.98 929.771ZM1641.59 871.635 1641.59 886.305 1656.3 886.305 1656.3 871.635ZM1496.07 871.635 1496.07 886.305 1510.79 886.305 1510.79 871.635ZM1576.18 864.571C1568.01 864.571 1561.47 871.091 1561.47 878.698 1561.47 886.848 1568.01 893.368 1576.18 893.368 1584.36 893.368 1590.9 886.848 1590.9 878.698 1590.9 871.091 1584.36 864.571 1576.18 864.571ZM1658.48 821.104C1660.66 825.451 1665.56 828.168 1670.47 828.168 1675.92 828.168 1680.83 825.451 1683.01 821.104L1663.38 821.104C1661.75 821.104 1660.11 821.104 1658.48 821.104ZM1656.3 745.58 1656.3 806.434 1699.9 806.434 1717.34 806.434ZM1434.48 734.17C1432.3 734.17 1430.67 735.256 1430.67 737.43L1430.67 1002.04 1728.79 1002.04 1728.79 820.561C1727.7 820.561 1727.15 821.104 1726.06 821.104L1698.81 821.104C1695.54 833.601 1684.1 842.838 1670.47 842.838 1658.48 842.838 1648.13 835.231 1643.76 824.364 1623.6 831.427 1608.34 849.901 1605.62 871.635L1626.87 871.635 1626.87 856.964 1670.47 856.964 1670.47 900.431 1626.87 900.431 1626.87 886.305 1603.98 886.305C1600.71 898.802 1589.81 908.038 1576.18 908.038 1569.1 908.038 1563.1 905.321 1558.2 901.518 1551.66 921.078 1536.95 936.835 1517.87 945.529 1517.33 960.742 1504.79 973.238 1488.98 973.238 1473.18 973.238 1460.1 960.198 1460.1 943.898 1460.1 928.142 1473.18 915.102 1488.98 915.102 1500.43 915.102 1509.7 921.621 1514.6 930.858 1532.04 922.165 1544.03 905.321 1546.76 886.305L1525.5 886.305 1525.5 900.431 1481.9 900.431 1481.9 856.964 1525.5 856.964 1525.5 871.635 1548.39 871.635C1551.66 859.138 1562.56 849.901 1576.18 849.901 1583.27 849.901 1589.26 852.617 1594.17 856.421 1601.8 834.144 1619.24 816.757 1641.59 809.694L1641.59 806.434 1641.59 736.887C1641.59 735.8 1641.59 734.713 1642.13 734.17ZM1434.48 719.5 1644.86 719.5C1648.67 719.5 1651.94 721.13 1654.67 723.303L1660.11 729.28 1729.33 797.741 1739.14 807.521C1741.86 810.237 1743.5 814.041 1743.5 817.3L1743.5 1002.04 1743.5 1121.57C1743.5 1131.89 1735.33 1139.5 1725.52 1139.5L1434.48 1139.5C1424.13 1139.5 1416.5 1131.89 1416.5 1121.57L1416.5 1002.04 1416.5 737.43C1416.5 727.65 1424.13 719.5 1434.48 719.5Z" stroke="#0045FF" stroke-width="4.58333" stroke-miterlimit="8" fill="#0045FF" fill-rule="evenodd"/></g></svg>