<svg width="513" height="445" xmlns="http://www.w3.org/2000/svg" xmlns:xlink="http://www.w3.org/1999/xlink" xml:space="preserve" overflow="hidden"><g transform="translate(-636 -676)"><path d="M676.524 1062.75C666.701 1062.75 658.739 1070.71 658.739 1080.46 658.739 1090.29 666.701 1098.25 676.524 1098.25 686.271 1098.25 694.308 1090.29 694.308 1080.46 694.308 1070.71 686.271 1062.75 676.524 1062.75ZM990.961 1047.57C996.615 1047.57 1001.08 1052.11 1001.08 1057.69L1001.08 1087.16C1001.08 1092.74 996.615 1097.28 990.961 1097.28 985.382 1097.28 980.844 1092.74 980.844 1087.16L980.844 1057.69C980.844 1052.11 985.382 1047.57 990.961 1047.57ZM788.288 1027.24C778.54 1027.24 770.578 1035.2 770.578 1045.03 770.578 1054.86 778.54 1062.82 788.288 1062.82 798.11 1062.82 806.072 1054.86 806.072 1045.03 806.072 1035.2 798.11 1027.24 788.288 1027.24ZM990.961 985.566C996.615 985.566 1001.08 990.105 1001.08 995.686L1001.08 1025.16C1001.08 1030.74 996.615 1035.28 990.961 1035.28 985.382 1035.28 980.844 1030.74 980.844 1025.16L980.844 995.686C980.844 990.105 985.382 985.566 990.961 985.566ZM990.961 923.503C996.615 923.503 1001.08 928.041 1001.08 933.621L1001.08 963.154C1001.08 968.734 996.615 973.272 990.961 973.272 985.382 973.272 980.844 968.734 980.844 963.154L980.844 933.621C980.844 928.041 985.382 923.503 990.961 923.503ZM1108.48 898.983C1098.65 898.983 1090.69 907.022 1090.69 916.773 1090.69 926.599 1098.65 934.564 1108.48 934.564 1118.3 934.564 1126.26 926.599 1126.26 916.773 1126.26 907.022 1118.3 898.983 1108.48 898.983ZM823.856 880.745C814.108 880.745 806.147 888.71 806.147 898.462 806.147 908.287 814.108 916.252 823.856 916.252 833.679 916.252 841.64 908.287 841.64 898.462 841.64 888.71 833.679 880.745 823.856 880.745ZM991.582 811.848C999.108 811.848 1005.21 817.934 1005.21 825.443 1005.21 832.951 999.108 839.038 991.582 839.038 984.055 839.038 977.953 832.951 977.953 825.443 977.953 817.934 984.055 811.848 991.582 811.848ZM991.577 791.345C972.826 791.345 957.572 806.605 957.572 825.438 957.572 844.197 972.826 859.456 991.577 859.456 1010.33 859.456 1025.58 844.197 1025.58 825.438 1025.58 806.605 1010.33 791.345 991.577 791.345ZM990.982 740.504C996.637 740.504 1001.1 745.045 1001.1 750.628L1001.1 771.992C1026.55 776.533 1045.82 798.715 1045.82 825.438 1045.82 833.998 1043.81 842.186 1040.24 849.407L1086.08 886.105C1092.33 881.49 1100.07 878.736 1108.48 878.736 1129.46 878.736 1146.5 895.856 1146.5 916.773 1146.5 937.765 1129.46 954.811 1108.48 954.811 1087.49 954.811 1070.45 937.765 1070.45 916.773 1070.45 911.562 1071.57 906.501 1073.5 901.96L1028.04 865.56C1020.6 872.334 1011.37 877.024 1001.1 878.81L1001.1 901.067C1001.1 906.65 996.637 911.191 990.982 911.191 985.402 911.191 980.862 906.65 980.862 901.067L980.862 878.661C966.575 875.758 954.223 867.197 946.41 855.362L861.582 893.474C861.731 895.111 861.88 896.75 861.88 898.462 861.88 918.783 845.956 935.382 825.865 936.425L807.932 1012.5C818.945 1019.13 826.312 1031.26 826.312 1045.03 826.312 1066.02 809.272 1083.07 788.288 1083.07 775.192 1083.07 763.658 1076.37 756.812 1066.24L714.473 1079.35C714.473 1079.72 714.547 1080.09 714.547 1080.46 714.547 1101.45 697.433 1118.5 676.524 1118.5 655.54 1118.5 638.5 1101.45 638.5 1080.46 638.5 1059.54 655.54 1042.5 676.524 1042.5 689.918 1042.5 701.748 1049.5 708.52 1059.99L750.339 1047.04C750.339 1046.37 750.339 1045.7 750.339 1045.03 750.339 1024.04 767.379 1006.99 788.288 1006.99 788.363 1006.99 788.437 1006.99 788.437 1006.99L806.147 932.107C794.092 925.706 785.906 913.051 785.906 898.462 785.906 877.545 802.947 860.498 823.856 860.498 835.911 860.498 846.626 866.081 853.62 874.865L938.522 836.753C937.704 833.105 937.332 829.309 937.332 825.438 937.332 799.161 956.083 777.128 980.862 772.215L980.862 750.628C980.862 745.045 985.402 740.504 990.982 740.504ZM990.961 678.5C996.615 678.5 1001.08 682.965 1001.08 688.62L1001.08 718.09C1001.08 723.671 996.615 728.21 990.961 728.21 985.382 728.21 980.844 723.671 980.844 718.09L980.844 688.62C980.844 682.965 985.382 678.5 990.961 678.5Z" stroke="#0045FF" stroke-width="4.58333" stroke-miterlimit="8" fill="#0045FF" fill-rule="evenodd"/></g></svg>